<svg width="26" height="24" viewBox="0 0 26 24" fill="none" xmlns="http://www.w3.org/2000/svg">
<path d="M24.6973 5.30861C24.3046 4.39935 23.7383 3.57538 23.0303 2.88283C22.3217 2.18822 21.4862 1.63622 20.5693 1.25686C19.6186 0.861914 18.5989 0.65976 17.5693 0.66213C16.125 0.66213 14.7158 1.05764 13.4912 1.80471C13.1982 1.98342 12.9199 2.17971 12.6563 2.39357C12.3926 2.17971 12.1143 1.98342 11.8213 1.80471C10.5967 1.05764 9.1875 0.66213 7.74316 0.66213C6.70312 0.66213 5.69531 0.861349 4.74316 1.25686C3.82324 1.63772 2.99414 2.18557 2.28223 2.88283C1.57323 3.5746 1.00687 4.39876 0.615234 5.30861C0.208008 6.2549 0 7.25978 0 8.29396C0 9.26955 0.199219 10.2861 0.594727 11.3203C0.925781 12.1846 1.40039 13.0811 2.00684 13.9863C2.96777 15.419 4.28906 16.9131 5.92969 18.4278C8.64844 20.9385 11.3408 22.6729 11.4551 22.7432L12.1494 23.1885C12.457 23.3848 12.8525 23.3848 13.1602 23.1885L13.8545 22.7432C13.9688 22.6699 16.6582 20.9385 19.3799 18.4278C21.0205 16.9131 22.3418 15.419 23.3027 13.9863C23.9092 13.0811 24.3867 12.1846 24.7148 11.3203C25.1104 10.2861 25.3096 9.26955 25.3096 8.29396C25.3125 7.25978 25.1045 6.2549 24.6973 5.30861ZM12.6563 20.8711C12.6563 20.8711 2.22656 14.1885 2.22656 8.29396C2.22656 5.30861 4.69629 2.88869 7.74316 2.88869C9.88477 2.88869 11.7422 4.084 12.6563 5.8301C13.5703 4.084 15.4277 2.88869 17.5693 2.88869C20.6162 2.88869 23.0859 5.30861 23.0859 8.29396C23.0859 14.1885 12.6563 20.8711 12.6563 20.8711Z" fill="#797979"/>
</svg>
