<svg width="37" height="37" viewBox="0 0 37 37" fill="none" xmlns="http://www.w3.org/2000/svg">
<g clip-path="url(#clip0_639_657)">
<path d="M31.0251 9.13195H25.0422V7.18441C25.0422 3.2229 21.8194 0 17.8578 0C13.8961 0 10.6735 3.2229 10.6735 7.18441V9.13195H5.51868C5.30988 9.13195 5.10964 9.21489 4.962 9.36253C4.81436 9.51017 4.73142 9.71041 4.73142 9.91921L0.306641 36.2126C0.30661 36.316 0.326963 36.4185 0.366537 36.514C0.406111 36.6096 0.46413 36.6964 0.537278 36.7696C0.610426 36.8427 0.69727 36.9007 0.792845 36.9402C0.88842 36.9798 0.990853 37.0001 1.09429 37.0001H35.9057C36.3408 37.0001 36.6935 36.6477 36.6935 36.2126L31.8125 9.91921C31.8125 9.81581 31.7922 9.71343 31.7526 9.6179C31.713 9.52238 31.655 9.43558 31.5819 9.36248C31.5088 9.28937 31.422 9.23139 31.3264 9.19183C31.2309 9.15228 31.1285 9.13193 31.0251 9.13195ZM12.2477 7.18441C12.2477 4.091 14.7646 1.57459 17.8574 1.57459C20.9508 1.57459 23.4675 4.09147 23.4675 7.18441V9.13195H12.2477V7.18441ZM35.1189 35.4254H1.88123L6.30546 10.7062H10.6728V14.1731C10.293 14.4273 10.0433 14.8597 10.0433 15.3508C10.0433 15.7266 10.1925 16.087 10.4582 16.3527C10.7239 16.6185 11.0843 16.7678 11.4601 16.7679C12.2422 16.7679 12.8771 16.1338 12.8771 15.3508C12.8771 14.8593 12.6267 14.4273 12.247 14.1731V10.7062H23.4679V14.1731C23.0881 14.4273 22.838 14.8597 22.838 15.3508C22.838 16.1332 23.472 16.7679 24.2551 16.7679C25.0374 16.7679 25.6721 16.1338 25.6721 15.3508C25.6721 14.8593 25.4213 14.4273 25.0418 14.1731V10.7062H30.2376L35.1189 35.4254Z" fill="#202020"/>
</g>
<defs>
<clipPath id="clip0_639_657">
<rect width="37.0001" height="37" fill="white"/>
</clipPath>
</defs>
</svg>
