<svg width="32" height="32" viewBox="0 0 32 32" fill="none" xmlns="http://www.w3.org/2000/svg">
<path d="M12.25 11.45H13.75V23.45H12.25V11.45Z" fill="#202020"/>
<path d="M15.25 11.45H16.75V23.45H15.25V11.45Z" fill="#202020"/>
<path d="M18.25 11.45H19.75V23.45H18.25V11.45Z" fill="#202020"/>
<path d="M6.25 6.94995H25.75V8.44995H6.25V6.94995Z" fill="#202020"/>
<path d="M19.7 7.7H18.3V6.2C18.3 5.75 17.95 5.4 17.5 5.4H14.5C14.05 5.4 13.7 5.75 13.7 6.2V7.7H12.3V6.2C12.3 5 13.3 4 14.5 4H17.5C18.7 4 19.7 5 19.7 6.2V7.7Z" fill="#202020"/>
<path d="M20.5 27.95H11.5C10.3 27.95 9.25 26.95 9.15 25.75L7.75 7.75002L9.25 7.65002L10.65 25.65C10.7 26.1 11.1 26.45 11.5 26.45H20.5C20.95 26.45 21.35 26.05 21.35 25.65L22.75 7.65002L24.25 7.75002L22.85 25.75C22.75 27 21.7 27.95 20.5 27.95Z" fill="#202020"/>
</svg>
